<svg xmlns="http://www.w3.org/2000/svg" viewBox="0 0 1520 592" width="1520" height="592">
<defs><marker id="arrow-gray" markerWidth="10" markerHeight="8" refX="9" refY="4" orient="auto" markerUnits="userSpaceOnUse"><path d="M0 0 L10 4 L0 8 z" fill="#94A3B8"/></marker><marker id="arrow-blue" markerWidth="10" markerHeight="8" refX="9" refY="4" orient="auto" markerUnits="userSpaceOnUse"><path d="M0 0 L10 4 L0 8 z" fill="#2563EB"/></marker><marker id="arrow-green" markerWidth="10" markerHeight="8" refX="9" refY="4" orient="auto" markerUnits="userSpaceOnUse"><path d="M0 0 L10 4 L0 8 z" fill="#16A34A"/></marker><marker id="arrow-purple" markerWidth="10" markerHeight="8" refX="9" refY="4" orient="auto" markerUnits="userSpaceOnUse"><path d="M0 0 L10 4 L0 8 z" fill="#7C3AED"/></marker><marker id="arrow-orange" markerWidth="10" markerHeight="8" refX="9" refY="4" orient="auto" markerUnits="userSpaceOnUse"><path d="M0 0 L10 4 L0 8 z" fill="#EA580C"/></marker><marker id="arrow-red" markerWidth="10" markerHeight="8" refX="9" refY="4" orient="auto" markerUnits="userSpaceOnUse"><path d="M0 0 L10 4 L0 8 z" fill="#DC2626"/></marker></defs>
<rect x="48" y="32" width="1424" height="528" rx="16" fill="#F8FAFC" stroke="#CBD5E1" stroke-width="2"/><text x="72" y="76" font-size="28" font-weight="700" fill="#1F2329" text-anchor="start">Hermes 普通任务循环：谁决策、谁执行</text><text x="72" y="108" font-size="16" font-weight="400" fill="#64748B" text-anchor="start">能直接回答就结束。需要工具才走下面这条矮带，虚线回填后再判断。</text><rect x="72" y="168" width="200" height="72" rx="28" fill="#EFF6FF" stroke="#2563EB" stroke-width="2"/><text x="172" y="210" font-size="16" font-weight="700" fill="#2563EB" text-anchor="middle">用户任务</text><rect x="312" y="168" width="220" height="72" rx="28" fill="#F5F3FF" stroke="#7C3AED" stroke-width="2"/><text x="422" y="210" font-size="16" font-weight="700" fill="#7C3AED" text-anchor="middle">加载上下文</text><polygon points="740,128 834,204 740,280 646,204" fill="#FFF7ED" stroke="#EA580C" stroke-width="2"/><text x="740" y="210" font-size="20" font-weight="700" fill="#EA580C" text-anchor="middle">判断</text><rect x="928" y="158" width="312" height="92" rx="16" fill="#DCFCE7" stroke="#16A34A" stroke-width="2"/><text x="1084" y="194" font-size="20" font-weight="700" fill="#16A34A" text-anchor="middle">最终答案</text><text x="1084" y="222" font-size="14" font-weight="400" fill="#64748B" text-anchor="middle">直接结束</text><line x1="272" y1="204" x2="312" y2="204" fill="none" stroke="#94A3B8" stroke-width="2" marker-end="url(#arrow-gray)"/><line x1="532" y1="204" x2="646" y2="204" fill="none" stroke="#94A3B8" stroke-width="2" marker-end="url(#arrow-gray)"/><line x1="834" y1="204" x2="928" y2="204" fill="none" stroke="#16A34A" stroke-width="2" marker-end="url(#arrow-green)"/><text x="880" y="190" font-size="14" font-weight="700" fill="#16A34A" text-anchor="middle">直接回答</text><rect x="560" y="312" width="360" height="168" rx="16" fill="#FFF7ED" stroke="#EA580C" stroke-width="2"/><text x="580" y="338" font-size="14" font-weight="700" fill="#EA580C" text-anchor="start">工具回路</text><rect x="600" y="352" width="280" height="52" rx="26" fill="#EFF6FF" stroke="#2563EB" stroke-width="2"/><text x="740" y="384" font-size="16" font-weight="700" fill="#2563EB" text-anchor="middle">执行工具</text><rect x="600" y="416" width="280" height="52" rx="26" fill="#F5F3FF" stroke="#7C3AED" stroke-width="2"/><text x="740" y="448" font-size="16" font-weight="700" fill="#7C3AED" text-anchor="middle">工具结果</text><polyline points="740,280 740,352" fill="none" stroke="#EA580C" stroke-width="2" marker-end="url(#arrow-orange)"/><text x="888" y="338" font-size="14" font-weight="700" fill="#EA580C" text-anchor="end">需要工具</text><polyline points="600,442 500,442 500,280 740,280" fill="none" stroke="#7C3AED" stroke-width="2" marker-end="url(#arrow-purple)" stroke-dasharray="8 6"/><text x="500" y="468" font-size="14" font-weight="400" fill="#7C3AED" text-anchor="middle">结果回填，再次判断</text><rect x="72" y="500" width="1376" height="40" rx="10" fill="#DCFCE7" stroke="#16A34A" stroke-width="1.5"/><text x="760" y="526" font-size="16" font-weight="700" fill="#16A34A" text-anchor="middle">直接回答就结束。工具结果必须虚线回填，再判断一次。</text>
</svg>
