<svg xmlns="http://www.w3.org/2000/svg" viewBox="0 0 1520 844" width="1520" height="844">
<defs><marker id="arrow-gray" markerWidth="10" markerHeight="8" refX="9" refY="4" orient="auto" markerUnits="userSpaceOnUse"><path d="M0 0 L10 4 L0 8 z" fill="#94A3B8"/></marker><marker id="arrow-blue" markerWidth="10" markerHeight="8" refX="9" refY="4" orient="auto" markerUnits="userSpaceOnUse"><path d="M0 0 L10 4 L0 8 z" fill="#2563EB"/></marker><marker id="arrow-green" markerWidth="10" markerHeight="8" refX="9" refY="4" orient="auto" markerUnits="userSpaceOnUse"><path d="M0 0 L10 4 L0 8 z" fill="#16A34A"/></marker><marker id="arrow-purple" markerWidth="10" markerHeight="8" refX="9" refY="4" orient="auto" markerUnits="userSpaceOnUse"><path d="M0 0 L10 4 L0 8 z" fill="#7C3AED"/></marker><marker id="arrow-orange" markerWidth="10" markerHeight="8" refX="9" refY="4" orient="auto" markerUnits="userSpaceOnUse"><path d="M0 0 L10 4 L0 8 z" fill="#EA580C"/></marker><marker id="arrow-red" markerWidth="10" markerHeight="8" refX="9" refY="4" orient="auto" markerUnits="userSpaceOnUse"><path d="M0 0 L10 4 L0 8 z" fill="#DC2626"/></marker></defs>
<rect x="40" y="32" width="1440" height="780" rx="16" fill="#F8FAFC" stroke="#CBD5E1" stroke-width="2"/><text x="64" y="72" font-size="24" font-weight="700" fill="#1F2329" text-anchor="start">学习闭环：值不值得写回去</text><text x="64" y="100" font-size="14" font-weight="400" fill="#64748B" text-anchor="start">复盘之后先过门禁；只有值得复用的才分类落盘，并在后续任务注入。</text><rect x="64" y="160" width="180" height="56" rx="28" fill="#ECFDF5" stroke="#16A34A" stroke-width="2"/><text x="154" y="196" font-size="15" font-weight="700" fill="#16A34A" text-anchor="middle">任务完成</text><rect x="310" y="160" width="160" height="56" rx="28" fill="#F5F3FF" stroke="#7C3AED" stroke-width="2"/><text x="390" y="196" font-size="15" font-weight="700" fill="#7C3AED" text-anchor="middle">复盘</text><polygon points="620,140 680,188 620,236 560,188" fill="#FFF7ED" stroke="#EA580C" stroke-width="2"/><text x="620" y="186" font-size="14" font-weight="700" fill="#EA580C" text-anchor="middle">值得</text><text x="620" y="206" font-size="14" font-weight="700" fill="#EA580C" text-anchor="middle">复用?</text><rect x="780" y="160" width="150" height="56" rx="28" fill="#FEE2E2" stroke="#DC2626" stroke-width="2"/><text x="855" y="196" font-size="15" font-weight="700" fill="#DC2626" text-anchor="middle">结束</text><rect x="540" y="320" width="200" height="56" rx="28" fill="#FFF7ED" stroke="#EA580C" stroke-width="2"/><text x="640" y="356" font-size="15" font-weight="700" fill="#EA580C" text-anchor="middle">写入门禁</text><rect x="220" y="460" width="220" height="88" rx="12" fill="#EFF6FF" stroke="#2563EB" stroke-width="2"/><text x="330" y="496" font-size="15" font-weight="700" fill="#2563EB" text-anchor="middle">USER.md</text><text x="330" y="522" font-size="13" font-weight="400" fill="#64748B" text-anchor="middle">个人偏好 / 习惯</text><rect x="640" y="460" width="220" height="88" rx="12" fill="#F5F3FF" stroke="#7C3AED" stroke-width="2"/><text x="750" y="496" font-size="15" font-weight="700" fill="#7C3AED" text-anchor="middle">MEMORY</text><text x="750" y="522" font-size="13" font-weight="400" fill="#64748B" text-anchor="middle">可检索事实</text><rect x="1060" y="460" width="220" height="88" rx="12" fill="#ECFDF5" stroke="#16A34A" stroke-width="2"/><text x="1170" y="496" font-size="15" font-weight="700" fill="#16A34A" text-anchor="middle">SKILL.md</text><text x="1170" y="522" font-size="13" font-weight="400" fill="#64748B" text-anchor="middle">可复用方法</text><rect x="430" y="610" width="220" height="56" rx="28" fill="#EFF6FF" stroke="#2563EB" stroke-width="2"/><text x="540" y="646" font-size="15" font-weight="700" fill="#2563EB" text-anchor="middle">后续任务注入</text><rect x="760" y="610" width="200" height="56" rx="28" fill="#ECFDF5" stroke="#16A34A" stroke-width="2"/><text x="860" y="646" font-size="15" font-weight="700" fill="#16A34A" text-anchor="middle">复用执行</text><line x1="244" y1="188" x2="298" y2="188" fill="none" stroke="#94A3B8" stroke-width="2" marker-end="url(#arrow-gray)"/><line x1="470" y1="188" x2="560" y2="188" fill="none" stroke="#94A3B8" stroke-width="2" marker-end="url(#arrow-gray)"/><line x1="680" y1="188" x2="770" y2="188" fill="none" stroke="#DC2626" stroke-width="2" marker-end="url(#arrow-red)"/><text x="725" y="174" font-size="13" font-weight="400" fill="#DC2626" text-anchor="middle">否</text><polyline points="620,236 620,320" fill="none" stroke="#94A3B8" stroke-width="2" marker-end="url(#arrow-gray)"/><text x="636" y="286" font-size="13" font-weight="400" fill="#16A34A" text-anchor="start">是</text><polyline points="640,376 330,376 330,460" fill="none" stroke="#2563EB" stroke-width="2" marker-end="url(#arrow-blue)"/><line x1="640" y1="376" x2="750" y2="460" fill="none" stroke="#7C3AED" stroke-width="2" marker-end="url(#arrow-purple)"/><polyline points="740,348 1170,348 1170,460" fill="none" stroke="#16A34A" stroke-width="2" marker-end="url(#arrow-green)"/><text x="560" y="404" font-size="13" font-weight="400" fill="#EA580C" text-anchor="middle">扫描 / 去重 / 质量</text><polyline points="330,548 330,638 430,638" fill="none" stroke="#94A3B8" stroke-width="2" marker-end="url(#arrow-gray)"/><line x1="750" y1="548" x2="540" y2="638" fill="none" stroke="#94A3B8" stroke-width="2" marker-end="url(#arrow-gray)"/><polyline points="1170,548 1170,638 960,638" fill="none" stroke="#94A3B8" stroke-width="2" marker-end="url(#arrow-gray)"/><line x1="650" y1="638" x2="748" y2="638" fill="none" stroke="#94A3B8" stroke-width="2" marker-end="url(#arrow-gray)"/><polyline points="960,638 1410,638 1410,128 154,128 154,160" fill="none" stroke="#7C3AED" stroke-width="2" marker-end="url(#arrow-purple)" stroke-dasharray="8 6"/><text x="1320" y="150" font-size="13" font-weight="400" fill="#7C3AED" text-anchor="middle">下一轮</text><rect x="64" y="710" width="1392" height="56" rx="12" fill="#FFFFFF" stroke="#CBD5E1" stroke-width="1.5"/><text x="760" y="744" font-size="14" font-weight="400" fill="#64748B" text-anchor="middle">「否」必须有结束态。门禁写的是扫描 / 去重 / 质量，不是「保存」。</text>
</svg>
