<svg xmlns="http://www.w3.org/2000/svg" viewBox="0 0 1520 720" width="1520" height="720">
<defs><marker id="arrow-gray" markerWidth="10" markerHeight="8" refX="9" refY="4" orient="auto" markerUnits="userSpaceOnUse"><path d="M0 0 L10 4 L0 8 z" fill="#94A3B8"/></marker><marker id="arrow-blue" markerWidth="10" markerHeight="8" refX="9" refY="4" orient="auto" markerUnits="userSpaceOnUse"><path d="M0 0 L10 4 L0 8 z" fill="#2563EB"/></marker><marker id="arrow-green" markerWidth="10" markerHeight="8" refX="9" refY="4" orient="auto" markerUnits="userSpaceOnUse"><path d="M0 0 L10 4 L0 8 z" fill="#16A34A"/></marker><marker id="arrow-purple" markerWidth="10" markerHeight="8" refX="9" refY="4" orient="auto" markerUnits="userSpaceOnUse"><path d="M0 0 L10 4 L0 8 z" fill="#7C3AED"/></marker><marker id="arrow-orange" markerWidth="10" markerHeight="8" refX="9" refY="4" orient="auto" markerUnits="userSpaceOnUse"><path d="M0 0 L10 4 L0 8 z" fill="#EA580C"/></marker><marker id="arrow-red" markerWidth="10" markerHeight="8" refX="9" refY="4" orient="auto" markerUnits="userSpaceOnUse"><path d="M0 0 L10 4 L0 8 z" fill="#DC2626"/></marker></defs>
<rect x="48" y="32" width="1424" height="656" rx="16" fill="#F8FAFC" stroke="#CBD5E1" stroke-width="2"/><text x="72" y="76" font-size="28" font-weight="700" fill="#1F2329" text-anchor="start">学习闭环：值不值得写回去</text><text x="72" y="108" font-size="16" font-weight="400" fill="#64748B" text-anchor="start">复盘之后先过门禁；只有值得复用的才分类落盘，并在后续任务注入。</text><rect x="72" y="168" width="188" height="64" rx="28" fill="#ECFDF5" stroke="#16A34A" stroke-width="2"/><text x="166" y="206" font-size="16" font-weight="700" fill="#16A34A" text-anchor="middle">任务完成</text><rect x="300" y="168" width="156" height="64" rx="28" fill="#F5F3FF" stroke="#7C3AED" stroke-width="2"/><text x="378" y="206" font-size="16" font-weight="700" fill="#7C3AED" text-anchor="middle">复盘</text><polygon points="640,136 744,220 640,304 536,220" fill="#FFF7ED" stroke="#EA580C" stroke-width="2"/><text x="640" y="212" font-size="18" font-weight="700" fill="#EA580C" text-anchor="middle">值得复用?</text><rect x="860" y="188" width="132" height="48" rx="24" fill="#FEE2E2" stroke="#DC2626" stroke-width="2"/><text x="926" y="218" font-size="16" font-weight="700" fill="#DC2626" text-anchor="middle">结束</text><rect x="520" y="328" width="240" height="88" rx="16" fill="#FFF7ED" stroke="#EA580C" stroke-width="2"/><text x="640" y="362" font-size="18" font-weight="700" fill="#EA580C" text-anchor="middle">写入门禁</text><text x="640" y="388" font-size="14" font-weight="400" fill="#EA580C" text-anchor="middle">扫描 / 去重 / 质量</text><rect x="72" y="444" width="432" height="84" rx="12" fill="#EFF6FF" stroke="#2563EB" stroke-width="2"/><text x="288" y="478" font-size="18" font-weight="700" fill="#2563EB" text-anchor="middle">USER.md</text><text x="288" y="504" font-size="14" font-weight="400" fill="#64748B" text-anchor="middle">个人偏好 / 习惯</text><rect x="544" y="444" width="432" height="84" rx="12" fill="#F5F3FF" stroke="#7C3AED" stroke-width="2"/><text x="760" y="478" font-size="18" font-weight="700" fill="#7C3AED" text-anchor="middle">MEMORY</text><text x="760" y="504" font-size="14" font-weight="400" fill="#64748B" text-anchor="middle">可检索事实</text><rect x="1016" y="444" width="432" height="84" rx="12" fill="#ECFDF5" stroke="#16A34A" stroke-width="2"/><text x="1232" y="478" font-size="18" font-weight="700" fill="#16A34A" text-anchor="middle">SKILL.md</text><text x="1232" y="504" font-size="14" font-weight="400" fill="#64748B" text-anchor="middle">可复用方法</text><rect x="400" y="560" width="240" height="56" rx="28" fill="#EFF6FF" stroke="#2563EB" stroke-width="2"/><text x="520" y="594" font-size="16" font-weight="700" fill="#2563EB" text-anchor="middle">后续任务注入</text><rect x="720" y="560" width="200" height="56" rx="28" fill="#ECFDF5" stroke="#16A34A" stroke-width="2"/><text x="820" y="594" font-size="16" font-weight="700" fill="#16A34A" text-anchor="middle">复用执行</text><line x1="260" y1="200" x2="300" y2="200" fill="none" stroke="#94A3B8" stroke-width="2" marker-end="url(#arrow-gray)"/><line x1="456" y1="200" x2="536" y2="220" fill="none" stroke="#94A3B8" stroke-width="2" marker-end="url(#arrow-gray)"/><line x1="744" y1="220" x2="860" y2="212" fill="none" stroke="#DC2626" stroke-width="2" marker-end="url(#arrow-red)"/><text x="800" y="198" font-size="14" font-weight="700" fill="#DC2626" text-anchor="middle">否</text><polyline points="640,304 640,328" fill="none" stroke="#94A3B8" stroke-width="2" marker-end="url(#arrow-gray)"/><text x="548" y="348" font-size="14" font-weight="700" fill="#16A34A" text-anchor="start">是</text><polyline points="560,416 288,416 288,444" fill="none" stroke="#2563EB" stroke-width="2" marker-end="url(#arrow-blue)"/><line x1="640" y1="416" x2="760" y2="444" fill="none" stroke="#7C3AED" stroke-width="2" marker-end="url(#arrow-purple)"/><polyline points="760,372 1232,372 1232,444" fill="none" stroke="#16A34A" stroke-width="2" marker-end="url(#arrow-green)"/><polyline points="288,528 288,588 400,588" fill="none" stroke="#94A3B8" stroke-width="2" marker-end="url(#arrow-gray)"/><line x1="760" y1="528" x2="520" y2="588" fill="none" stroke="#94A3B8" stroke-width="2" marker-end="url(#arrow-gray)"/><polyline points="1232,528 1232,588 920,588" fill="none" stroke="#94A3B8" stroke-width="2" marker-end="url(#arrow-gray)"/><line x1="640" y1="588" x2="720" y2="588" fill="none" stroke="#94A3B8" stroke-width="2" marker-end="url(#arrow-gray)"/><polyline points="720,616 72,616 72,200" fill="none" stroke="#7C3AED" stroke-width="2" marker-end="url(#arrow-purple)" stroke-dasharray="8 6"/><text x="160" y="604" font-size="14" font-weight="700" fill="#7C3AED" text-anchor="start">下一轮</text><rect x="72" y="640" width="1376" height="32" rx="10" fill="#DCFCE7" stroke="#16A34A" stroke-width="1.5"/><text x="760" y="662" font-size="16" font-weight="700" fill="#16A34A" text-anchor="middle">「否」必须有结束态。门禁写的是扫描 / 去重 / 质量，不是「保存」。</text>
</svg>
