<svg xmlns="http://www.w3.org/2000/svg" viewBox="0 0 1600 820" width="1600" height="820">
<defs><marker id="arrow-gray" markerWidth="10" markerHeight="8" refX="9" refY="4" orient="auto" markerUnits="userSpaceOnUse"><path d="M0 0 L10 4 L0 8 z" fill="#94A3B8"/></marker><marker id="arrow-blue" markerWidth="10" markerHeight="8" refX="9" refY="4" orient="auto" markerUnits="userSpaceOnUse"><path d="M0 0 L10 4 L0 8 z" fill="#2563EB"/></marker><marker id="arrow-green" markerWidth="10" markerHeight="8" refX="9" refY="4" orient="auto" markerUnits="userSpaceOnUse"><path d="M0 0 L10 4 L0 8 z" fill="#16A34A"/></marker><marker id="arrow-purple" markerWidth="10" markerHeight="8" refX="9" refY="4" orient="auto" markerUnits="userSpaceOnUse"><path d="M0 0 L10 4 L0 8 z" fill="#7C3AED"/></marker><marker id="arrow-orange" markerWidth="10" markerHeight="8" refX="9" refY="4" orient="auto" markerUnits="userSpaceOnUse"><path d="M0 0 L10 4 L0 8 z" fill="#EA580C"/></marker><marker id="arrow-red" markerWidth="10" markerHeight="8" refX="9" refY="4" orient="auto" markerUnits="userSpaceOnUse"><path d="M0 0 L10 4 L0 8 z" fill="#DC2626"/></marker><marker id="arrow-ink" markerWidth="10" markerHeight="8" refX="9" refY="4" orient="auto" markerUnits="userSpaceOnUse"><path d="M0 0 L10 4 L0 8 z" fill="#0F0F0F"/></marker><marker id="arrow-riso-green" markerWidth="10" markerHeight="8" refX="9" refY="4" orient="auto" markerUnits="userSpaceOnUse"><path d="M0 0 L10 4 L0 8 z" fill="#167342"/></marker><marker id="arrow-riso-orange" markerWidth="10" markerHeight="8" refX="9" refY="4" orient="auto" markerUnits="userSpaceOnUse"><path d="M0 0 L10 4 L0 8 z" fill="#E85A1F"/></marker><marker id="arrow-cobalt" markerWidth="10" markerHeight="8" refX="9" refY="4" orient="auto" markerUnits="userSpaceOnUse"><path d="M0 0 L10 4 L0 8 z" fill="#375DFE"/></marker><marker id="arrow-coral" markerWidth="10" markerHeight="8" refX="9" refY="4" orient="auto" markerUnits="userSpaceOnUse"><path d="M0 0 L10 4 L0 8 z" fill="#E85D5D"/></marker><marker id="arrow-grove" markerWidth="10" markerHeight="8" refX="9" refY="4" orient="auto" markerUnits="userSpaceOnUse"><path d="M0 0 L10 4 L0 8 z" fill="#192B1B"/></marker><marker id="arrow-avo" markerWidth="10" markerHeight="8" refX="9" refY="4" orient="auto" markerUnits="userSpaceOnUse"><path d="M0 0 L10 4 L0 8 z" fill="#0055A4"/></marker></defs>
<rect x="0" y="0" width="1600" height="820" rx="0" fill="#FDF0E0" stroke="#FDF0E0" stroke-width="0"/><text x="64" y="72" font-size="40" font-weight="700" fill="#1A2240" text-anchor="start">三种落盘，哪一列接什么</text><text x="64" y="112" font-size="18" font-weight="400" fill="#1A2240" text-anchor="start">逐项对比。钴色块是该行更该写入的去处，不是三种都写。</text><rect x="64" y="160" width="336" height="64" rx="0" fill="#1A2240" stroke="#1A2240" stroke-width="0"/><text x="88" y="200" font-size="20" font-weight="700" fill="#FDF0E0" text-anchor="start" data-bg="#1A2240">维度</text><rect x="400" y="160" width="336" height="64" rx="0" fill="#375DFE" stroke="#1A2240" stroke-width="4"/><text x="568" y="202" font-size="20" font-weight="700" fill="#FFFFFF" text-anchor="middle" data-bg="#375DFE">USER.md</text><rect x="800" y="160" width="336" height="64" rx="0" fill="#375DFE" stroke="#1A2240" stroke-width="4"/><text x="968" y="202" font-size="20" font-weight="700" fill="#FFFFFF" text-anchor="middle" data-bg="#375DFE">MEMORY</text><rect x="1200" y="160" width="336" height="64" rx="0" fill="#375DFE" stroke="#1A2240" stroke-width="4"/><text x="1368" y="202" font-size="20" font-weight="700" fill="#FFFFFF" text-anchor="middle" data-bg="#375DFE">SKILL.md</text><rect x="64" y="240" width="336" height="100" rx="0" fill="#1A2240" stroke="#1A2240" stroke-width="0"/><text x="88" y="298" font-size="18" font-weight="700" fill="#FDF0E0" text-anchor="start" data-bg="#1A2240">内容</text><rect x="400" y="240" width="336" height="100" rx="0" fill="#375DFE" stroke="#1A2240" stroke-width="4"/><text x="420" y="298" font-size="16" font-weight="700" fill="#FFFFFF" text-anchor="start" data-bg="#375DFE">偏好与习惯</text><rect x="800" y="240" width="336" height="100" rx="0" fill="#FFFFFF" stroke="#1A2240" stroke-width="4"/><text x="820" y="298" font-size="16" font-weight="400" fill="#1A2240" text-anchor="start">可检索事实</text><rect x="1200" y="240" width="336" height="100" rx="0" fill="#FFFFFF" stroke="#1A2240" stroke-width="4"/><text x="1220" y="298" font-size="16" font-weight="400" fill="#1A2240" text-anchor="start">可复用步骤</text><rect x="64" y="348" width="336" height="100" rx="0" fill="#1A2240" stroke="#1A2240" stroke-width="0"/><text x="88" y="406" font-size="18" font-weight="700" fill="#FDF0E0" text-anchor="start" data-bg="#1A2240">读取时机</text><rect x="400" y="348" width="336" height="100" rx="0" fill="#FFFFFF" stroke="#1A2240" stroke-width="4"/><text x="420" y="406" font-size="16" font-weight="400" fill="#1A2240" text-anchor="start">每轮开始注入</text><rect x="800" y="348" width="336" height="100" rx="0" fill="#FFFFFF" stroke="#1A2240" stroke-width="4"/><text x="820" y="406" font-size="16" font-weight="400" fill="#1A2240" text-anchor="start">需要时召回</text><rect x="1200" y="348" width="336" height="100" rx="0" fill="#375DFE" stroke="#1A2240" stroke-width="4"/><text x="1220" y="406" font-size="16" font-weight="700" fill="#FFFFFF" text-anchor="start" data-bg="#375DFE">匹配任务时加载</text><rect x="64" y="456" width="336" height="100" rx="0" fill="#1A2240" stroke="#1A2240" stroke-width="0"/><text x="88" y="514" font-size="18" font-weight="700" fill="#FDF0E0" text-anchor="start" data-bg="#1A2240">风险</text><rect x="400" y="456" width="336" height="100" rx="0" fill="#FFFFFF" stroke="#1A2240" stroke-width="4"/><text x="420" y="514" font-size="16" font-weight="400" fill="#1A2240" text-anchor="start">写进人格会漂移</text><rect x="800" y="456" width="336" height="100" rx="0" fill="#375DFE" stroke="#1A2240" stroke-width="4"/><text x="820" y="514" font-size="16" font-weight="700" fill="#FFFFFF" text-anchor="start" data-bg="#375DFE">脏事实被反复引用</text><rect x="1200" y="456" width="336" height="100" rx="0" fill="#FFFFFF" stroke="#1A2240" stroke-width="4"/><text x="1220" y="514" font-size="16" font-weight="400" fill="#1A2240" text-anchor="start">步骤过时仍被执行</text><rect x="64" y="564" width="336" height="100" rx="0" fill="#1A2240" stroke="#1A2240" stroke-width="0"/><text x="88" y="622" font-size="18" font-weight="700" fill="#FDF0E0" text-anchor="start" data-bg="#1A2240">门禁</text><rect x="400" y="564" width="336" height="100" rx="0" fill="#FFFFFF" stroke="#1A2240" stroke-width="4"/><text x="420" y="622" font-size="16" font-weight="400" fill="#1A2240" text-anchor="start">是否稳定偏好</text><rect x="800" y="564" width="336" height="100" rx="0" fill="#375DFE" stroke="#1A2240" stroke-width="4"/><text x="820" y="622" font-size="16" font-weight="700" fill="#FFFFFF" text-anchor="start" data-bg="#375DFE">扫描 / 去重</text><rect x="1200" y="564" width="336" height="100" rx="0" fill="#FFFFFF" stroke="#1A2240" stroke-width="4"/><text x="1220" y="622" font-size="16" font-weight="400" fill="#1A2240" text-anchor="start">质量可否复现</text><rect x="64" y="700" width="1472" height="64" rx="0" fill="#375DFE" stroke="#1A2240" stroke-width="4"/><text x="800" y="740" font-size="18" font-weight="700" fill="#FFFFFF" text-anchor="middle" data-bg="#375DFE">结论：一类知识只进一列。钴色是该行的去处，不是装饰。</text>
</svg>
