<svg xmlns="http://www.w3.org/2000/svg" viewBox="0 0 1600 900" width="1600" height="900">
<defs><marker id="arrow-gray" markerWidth="10" markerHeight="8" refX="9" refY="4" orient="auto" markerUnits="userSpaceOnUse"><path d="M0 0 L10 4 L0 8 z" fill="#94A3B8"/></marker><marker id="arrow-blue" markerWidth="10" markerHeight="8" refX="9" refY="4" orient="auto" markerUnits="userSpaceOnUse"><path d="M0 0 L10 4 L0 8 z" fill="#2563EB"/></marker><marker id="arrow-green" markerWidth="10" markerHeight="8" refX="9" refY="4" orient="auto" markerUnits="userSpaceOnUse"><path d="M0 0 L10 4 L0 8 z" fill="#16A34A"/></marker><marker id="arrow-purple" markerWidth="10" markerHeight="8" refX="9" refY="4" orient="auto" markerUnits="userSpaceOnUse"><path d="M0 0 L10 4 L0 8 z" fill="#7C3AED"/></marker><marker id="arrow-orange" markerWidth="10" markerHeight="8" refX="9" refY="4" orient="auto" markerUnits="userSpaceOnUse"><path d="M0 0 L10 4 L0 8 z" fill="#EA580C"/></marker><marker id="arrow-red" markerWidth="10" markerHeight="8" refX="9" refY="4" orient="auto" markerUnits="userSpaceOnUse"><path d="M0 0 L10 4 L0 8 z" fill="#DC2626"/></marker><marker id="arrow-ink" markerWidth="10" markerHeight="8" refX="9" refY="4" orient="auto" markerUnits="userSpaceOnUse"><path d="M0 0 L10 4 L0 8 z" fill="#0F0F0F"/></marker><marker id="arrow-riso-green" markerWidth="10" markerHeight="8" refX="9" refY="4" orient="auto" markerUnits="userSpaceOnUse"><path d="M0 0 L10 4 L0 8 z" fill="#167342"/></marker><marker id="arrow-riso-orange" markerWidth="10" markerHeight="8" refX="9" refY="4" orient="auto" markerUnits="userSpaceOnUse"><path d="M0 0 L10 4 L0 8 z" fill="#E85A1F"/></marker><marker id="arrow-cobalt" markerWidth="10" markerHeight="8" refX="9" refY="4" orient="auto" markerUnits="userSpaceOnUse"><path d="M0 0 L10 4 L0 8 z" fill="#375DFE"/></marker><marker id="arrow-coral" markerWidth="10" markerHeight="8" refX="9" refY="4" orient="auto" markerUnits="userSpaceOnUse"><path d="M0 0 L10 4 L0 8 z" fill="#E85D5D"/></marker><marker id="arrow-grove" markerWidth="10" markerHeight="8" refX="9" refY="4" orient="auto" markerUnits="userSpaceOnUse"><path d="M0 0 L10 4 L0 8 z" fill="#192B1B"/></marker><marker id="arrow-avo" markerWidth="10" markerHeight="8" refX="9" refY="4" orient="auto" markerUnits="userSpaceOnUse"><path d="M0 0 L10 4 L0 8 z" fill="#0055A4"/></marker></defs>
<rect x="0" y="0" width="1600" height="900" rx="0" fill="#EFE9D9" stroke="#EFE9D9" stroke-width="0"/><text x="80" y="80" font-size="40" font-weight="700" fill="#0F0F0F" text-anchor="start">一次调用：三条泳道怎么握手</text><text x="80" y="122" font-size="18" font-weight="400" fill="#2A2A2A" text-anchor="start">时间向右。Agent 是主角车道：绿帽 + 更重的色带。判断那一格是唯一饱和块。</text><text x="404" y="156" font-size="16" font-weight="700" fill="#2A2A2A" text-anchor="middle">提出</text><text x="636" y="156" font-size="16" font-weight="700" fill="#2A2A2A" text-anchor="middle">判断</text><text x="868" y="156" font-size="16" font-weight="700" fill="#2A2A2A" text-anchor="middle">执行</text><text x="1100" y="156" font-size="16" font-weight="700" fill="#2A2A2A" text-anchor="middle">回填</text><text x="1332" y="156" font-size="16" font-weight="700" fill="#2A2A2A" text-anchor="middle">作答</text><rect x="80" y="176" width="1440" height="180" rx="0" fill="#FFFFFF" stroke="#0F0F0F" stroke-width="4"/><rect x="80" y="176" width="200" height="180" rx="0" fill="#0F0F0F" stroke="#0F0F0F" stroke-width="4"/><text x="180" y="256" font-size="22" font-weight="700" fill="#EFE9D9" text-anchor="middle" data-bg="#0F0F0F">用户</text><text x="180" y="288" font-size="14" font-weight="400" fill="#EFE9D9" text-anchor="middle" data-bg="#0F0F0F">提出目标，收答案</text><rect x="300" y="204" width="208" height="124" rx="0" fill="#FFFFFF" stroke="#0F0F0F" stroke-width="4"/><text x="316" y="252" font-size="16" font-weight="700" fill="#0F0F0F" text-anchor="start" data-bg="#FFFFFF">提出任务</text><text x="316" y="284" font-size="14" font-weight="400" fill="#0F0F0F" text-anchor="start" data-bg="#FFFFFF">目标进场</text><rect x="532" y="224" width="208" height="84" rx="0" fill="#E4DCC4" stroke="#0F0F0F" stroke-width="2"/><rect x="764" y="224" width="208" height="84" rx="0" fill="#E4DCC4" stroke="#0F0F0F" stroke-width="2"/><rect x="996" y="224" width="208" height="84" rx="0" fill="#E4DCC4" stroke="#0F0F0F" stroke-width="2"/><rect x="1228" y="204" width="208" height="124" rx="0" fill="#FFFFFF" stroke="#0F0F0F" stroke-width="4"/><text x="1244" y="252" font-size="16" font-weight="700" fill="#0F0F0F" text-anchor="start" data-bg="#FFFFFF">收答案</text><text x="1244" y="284" font-size="14" font-weight="400" fill="#0F0F0F" text-anchor="start" data-bg="#FFFFFF">直接结束</text><rect x="90" y="396" width="1440" height="180" rx="0" fill="#0F0F0F" stroke="#0F0F0F" stroke-width="0"/><rect x="80" y="376" width="1440" height="180" rx="0" fill="#E4DCC4" stroke="#0F0F0F" stroke-width="4"/><rect x="80" y="376" width="200" height="180" rx="0" fill="#167342" stroke="#0F0F0F" stroke-width="4"/><text x="180" y="456" font-size="22" font-weight="700" fill="#EFE9D9" text-anchor="middle" data-bg="#167342">Agent</text><text x="180" y="488" font-size="14" font-weight="400" fill="#EFE9D9" text-anchor="middle" data-bg="#167342">决策与组织</text><rect x="300" y="404" width="208" height="124" rx="0" fill="#FFFFFF" stroke="#0F0F0F" stroke-width="4"/><text x="316" y="452" font-size="16" font-weight="700" fill="#0F0F0F" text-anchor="start" data-bg="#FFFFFF">加载上下文</text><text x="316" y="484" font-size="14" font-weight="400" fill="#0F0F0F" text-anchor="start" data-bg="#FFFFFF">记忆 / 技能</text><rect x="542" y="414" width="208" height="124" rx="0" fill="#E85A1F" stroke="#E85A1F" stroke-width="0"/><rect x="532" y="404" width="208" height="124" rx="0" fill="#E85A1F" stroke="#0F0F0F" stroke-width="4"/><text x="548" y="452" font-size="16" font-weight="700" fill="#0F0F0F" text-anchor="start" data-bg="#E85A1F">判断</text><text x="548" y="484" font-size="14" font-weight="400" fill="#0F0F0F" text-anchor="start" data-bg="#E85A1F">谁决策</text><rect x="764" y="404" width="208" height="124" rx="0" fill="#FFFFFF" stroke="#0F0F0F" stroke-width="4"/><text x="780" y="452" font-size="16" font-weight="700" fill="#0F0F0F" text-anchor="start" data-bg="#FFFFFF">组织调用</text><text x="780" y="484" font-size="14" font-weight="400" fill="#0F0F0F" text-anchor="start" data-bg="#FFFFFF">要不要工具</text><rect x="996" y="404" width="208" height="124" rx="0" fill="#FFFFFF" stroke="#0F0F0F" stroke-width="4"/><text x="1012" y="452" font-size="16" font-weight="700" fill="#0F0F0F" text-anchor="start" data-bg="#FFFFFF">吸收结果</text><text x="1012" y="484" font-size="14" font-weight="400" fill="#0F0F0F" text-anchor="start" data-bg="#FFFFFF">再次判断</text><rect x="1228" y="404" width="208" height="124" rx="0" fill="#167342" stroke="#0F0F0F" stroke-width="4"/><text x="1244" y="452" font-size="16" font-weight="700" fill="#EFE9D9" text-anchor="start" data-bg="#167342">最终答案</text><text x="1244" y="484" font-size="14" font-weight="400" fill="#EFE9D9" text-anchor="start" data-bg="#167342">写回用户</text><rect x="80" y="576" width="1440" height="180" rx="0" fill="#FFFFFF" stroke="#0F0F0F" stroke-width="4"/><rect x="80" y="576" width="200" height="180" rx="0" fill="#0F0F0F" stroke="#0F0F0F" stroke-width="4"/><text x="180" y="656" font-size="22" font-weight="700" fill="#EFE9D9" text-anchor="middle" data-bg="#0F0F0F">工具</text><text x="180" y="688" font-size="14" font-weight="400" fill="#EFE9D9" text-anchor="middle" data-bg="#0F0F0F">谁执行</text><rect x="300" y="624" width="208" height="84" rx="0" fill="#E4DCC4" stroke="#0F0F0F" stroke-width="2"/><rect x="532" y="624" width="208" height="84" rx="0" fill="#E4DCC4" stroke="#0F0F0F" stroke-width="2"/><rect x="764" y="604" width="208" height="124" rx="0" fill="#FFFFFF" stroke="#0F0F0F" stroke-width="4"/><text x="780" y="652" font-size="16" font-weight="700" fill="#0F0F0F" text-anchor="start" data-bg="#FFFFFF">执行工具</text><text x="780" y="684" font-size="14" font-weight="400" fill="#0F0F0F" text-anchor="start" data-bg="#FFFFFF">谁执行</text><rect x="996" y="604" width="208" height="124" rx="0" fill="#FFFFFF" stroke="#0F0F0F" stroke-width="4"/><text x="1012" y="652" font-size="16" font-weight="700" fill="#0F0F0F" text-anchor="start" data-bg="#FFFFFF">回填结果</text><text x="1012" y="684" font-size="14" font-weight="400" fill="#0F0F0F" text-anchor="start" data-bg="#FFFFFF">虚线回判断</text><rect x="1228" y="624" width="208" height="84" rx="0" fill="#E4DCC4" stroke="#0F0F0F" stroke-width="2"/><polyline data-role="edge" points="1100,604 1100,528" fill="none" stroke="#E85A1F" stroke-width="3" marker-end="url(#arrow-riso-orange)" stroke-dasharray="8 6"/><text x="1116" y="572" font-size="16" font-weight="700" fill="#E85A1F" text-anchor="start">回填</text><rect x="80" y="788" width="1440" height="56" rx="0" fill="#0F0F0F" stroke="#0F0F0F" stroke-width="0"/><text x="800" y="824" font-size="18" font-weight="700" fill="#EFE9D9" text-anchor="middle" data-bg="#0F0F0F">主角车道上色。判断是唯一饱和块。工具结果虚线回填，不是另一条正向边。</text>
</svg>
