<svg xmlns="http://www.w3.org/2000/svg" viewBox="0 0 1600 1020" width="1600" height="1020">
<defs><marker id="arrow-gray" markerWidth="10" markerHeight="8" refX="9" refY="4" orient="auto" markerUnits="userSpaceOnUse"><path d="M0 0 L10 4 L0 8 z" fill="#94A3B8"/></marker><marker id="arrow-blue" markerWidth="10" markerHeight="8" refX="9" refY="4" orient="auto" markerUnits="userSpaceOnUse"><path d="M0 0 L10 4 L0 8 z" fill="#2563EB"/></marker><marker id="arrow-green" markerWidth="10" markerHeight="8" refX="9" refY="4" orient="auto" markerUnits="userSpaceOnUse"><path d="M0 0 L10 4 L0 8 z" fill="#16A34A"/></marker><marker id="arrow-purple" markerWidth="10" markerHeight="8" refX="9" refY="4" orient="auto" markerUnits="userSpaceOnUse"><path d="M0 0 L10 4 L0 8 z" fill="#7C3AED"/></marker><marker id="arrow-orange" markerWidth="10" markerHeight="8" refX="9" refY="4" orient="auto" markerUnits="userSpaceOnUse"><path d="M0 0 L10 4 L0 8 z" fill="#EA580C"/></marker><marker id="arrow-red" markerWidth="10" markerHeight="8" refX="9" refY="4" orient="auto" markerUnits="userSpaceOnUse"><path d="M0 0 L10 4 L0 8 z" fill="#DC2626"/></marker><marker id="arrow-ink" markerWidth="10" markerHeight="8" refX="9" refY="4" orient="auto" markerUnits="userSpaceOnUse"><path d="M0 0 L10 4 L0 8 z" fill="#0F0F0F"/></marker><marker id="arrow-riso-green" markerWidth="10" markerHeight="8" refX="9" refY="4" orient="auto" markerUnits="userSpaceOnUse"><path d="M0 0 L10 4 L0 8 z" fill="#1F8A4C"/></marker><marker id="arrow-riso-orange" markerWidth="10" markerHeight="8" refX="9" refY="4" orient="auto" markerUnits="userSpaceOnUse"><path d="M0 0 L10 4 L0 8 z" fill="#E85A1F"/></marker><marker id="arrow-cobalt" markerWidth="10" markerHeight="8" refX="9" refY="4" orient="auto" markerUnits="userSpaceOnUse"><path d="M0 0 L10 4 L0 8 z" fill="#375DFE"/></marker><marker id="arrow-coral" markerWidth="10" markerHeight="8" refX="9" refY="4" orient="auto" markerUnits="userSpaceOnUse"><path d="M0 0 L10 4 L0 8 z" fill="#E85D5D"/></marker><marker id="arrow-grove" markerWidth="10" markerHeight="8" refX="9" refY="4" orient="auto" markerUnits="userSpaceOnUse"><path d="M0 0 L10 4 L0 8 z" fill="#192B1B"/></marker><marker id="arrow-avo" markerWidth="10" markerHeight="8" refX="9" refY="4" orient="auto" markerUnits="userSpaceOnUse"><path d="M0 0 L10 4 L0 8 z" fill="#0055A4"/></marker></defs>
<rect x="0" y="0" width="1600" height="1020" rx="0" fill="#E8E4D6" stroke="#E8E4D6" stroke-width="0"/><text x="80" y="80" font-size="40" font-weight="700" fill="#192B1B" text-anchor="start">写不写回去：可复用 × 可验证</text><text x="80" y="122" font-size="18" font-weight="400" fill="#192B1B" text-anchor="start">Grove 色板。只有右上角值得写成 SKILL.md。其余三格老实留白。</text><rect x="758" y="168" width="4" height="720" rx="0" fill="#192B1B" stroke="#192B1B" stroke-width="0"/><rect x="400" y="526" width="720" height="4" rx="0" fill="#192B1B" stroke="#192B1B" stroke-width="0"/><text x="760" y="920" font-size="20" font-weight="700" fill="#192B1B" text-anchor="middle">可复用 →</text><text x="372" y="200" font-size="20" font-weight="700" fill="#192B1B" text-anchor="end">可验证 ↑</text><rect x="420" y="188" width="324" height="324" rx="0" fill="#E8E4D6" stroke="#192B1B" stroke-width="4"/><text x="444" y="244" font-size="24" font-weight="700" fill="#192B1B" text-anchor="start">MEMORY</text><text x="444" y="288" font-size="16" font-weight="400" fill="#192B1B" text-anchor="start">可验证但不必复用</text><text x="444" y="320" font-size="16" font-weight="400" fill="#192B1B" text-anchor="start">召回事实，不养成习惯</text><rect x="786" y="198" width="324" height="324" rx="0" fill="#C8524A" stroke="#C8524A" stroke-width="0"/><rect x="776" y="188" width="324" height="324" rx="0" fill="#C8524A" stroke="#192B1B" stroke-width="4"/><text x="800" y="244" font-size="24" font-weight="700" fill="#F4F1E6" text-anchor="start">SKILL.md</text><text x="800" y="288" font-size="16" font-weight="400" fill="#F4F1E6" text-anchor="start">可复用且可验证</text><text x="800" y="320" font-size="16" font-weight="400" fill="#F4F1E6" text-anchor="start">过门禁后按步骤落盘</text><rect x="420" y="544" width="324" height="324" rx="0" fill="#E8E4D6" stroke="#192B1B" stroke-width="4"/><text x="444" y="600" font-size="24" font-weight="700" fill="#192B1B" text-anchor="start">结束</text><text x="444" y="644" font-size="16" font-weight="400" fill="#192B1B" text-anchor="start">既不复用也难验证</text><text x="444" y="676" font-size="16" font-weight="400" fill="#192B1B" text-anchor="start">不写回去</text><rect x="776" y="544" width="324" height="324" rx="0" fill="#E8E4D6" stroke="#192B1B" stroke-width="4"/><text x="800" y="600" font-size="24" font-weight="700" fill="#192B1B" text-anchor="start">先过门禁</text><text x="800" y="644" font-size="16" font-weight="400" fill="#192B1B" text-anchor="start">想复用但还不可验证</text><text x="800" y="676" font-size="16" font-weight="400" fill="#192B1B" text-anchor="start">扫描 / 去重 / 质量</text><rect x="80" y="948" width="1440" height="56" rx="0" fill="#192B1B" stroke="#192B1B" stroke-width="0"/><text x="800" y="984" font-size="18" font-weight="700" fill="#F4F1E6" text-anchor="middle">右上角才写 SKILL.md。想复用但不可验证，先过门禁，不要直接保存。</text>
</svg>
