<svg xmlns="http://www.w3.org/2000/svg" viewBox="0 0 1600 820" width="1600" height="820">
<defs><marker id="arrow-gray" markerWidth="10" markerHeight="8" refX="9" refY="4" orient="auto" markerUnits="userSpaceOnUse"><path d="M0 0 L10 4 L0 8 z" fill="#94A3B8"/></marker><marker id="arrow-blue" markerWidth="10" markerHeight="8" refX="9" refY="4" orient="auto" markerUnits="userSpaceOnUse"><path d="M0 0 L10 4 L0 8 z" fill="#2563EB"/></marker><marker id="arrow-green" markerWidth="10" markerHeight="8" refX="9" refY="4" orient="auto" markerUnits="userSpaceOnUse"><path d="M0 0 L10 4 L0 8 z" fill="#16A34A"/></marker><marker id="arrow-purple" markerWidth="10" markerHeight="8" refX="9" refY="4" orient="auto" markerUnits="userSpaceOnUse"><path d="M0 0 L10 4 L0 8 z" fill="#7C3AED"/></marker><marker id="arrow-orange" markerWidth="10" markerHeight="8" refX="9" refY="4" orient="auto" markerUnits="userSpaceOnUse"><path d="M0 0 L10 4 L0 8 z" fill="#EA580C"/></marker><marker id="arrow-red" markerWidth="10" markerHeight="8" refX="9" refY="4" orient="auto" markerUnits="userSpaceOnUse"><path d="M0 0 L10 4 L0 8 z" fill="#DC2626"/></marker><marker id="arrow-ink" markerWidth="10" markerHeight="8" refX="9" refY="4" orient="auto" markerUnits="userSpaceOnUse"><path d="M0 0 L10 4 L0 8 z" fill="#0F0F0F"/></marker><marker id="arrow-riso-green" markerWidth="10" markerHeight="8" refX="9" refY="4" orient="auto" markerUnits="userSpaceOnUse"><path d="M0 0 L10 4 L0 8 z" fill="#167342"/></marker><marker id="arrow-riso-orange" markerWidth="10" markerHeight="8" refX="9" refY="4" orient="auto" markerUnits="userSpaceOnUse"><path d="M0 0 L10 4 L0 8 z" fill="#E85A1F"/></marker><marker id="arrow-cobalt" markerWidth="10" markerHeight="8" refX="9" refY="4" orient="auto" markerUnits="userSpaceOnUse"><path d="M0 0 L10 4 L0 8 z" fill="#375DFE"/></marker><marker id="arrow-coral" markerWidth="10" markerHeight="8" refX="9" refY="4" orient="auto" markerUnits="userSpaceOnUse"><path d="M0 0 L10 4 L0 8 z" fill="#E85D5D"/></marker><marker id="arrow-grove" markerWidth="10" markerHeight="8" refX="9" refY="4" orient="auto" markerUnits="userSpaceOnUse"><path d="M0 0 L10 4 L0 8 z" fill="#192B1B"/></marker><marker id="arrow-avo" markerWidth="10" markerHeight="8" refX="9" refY="4" orient="auto" markerUnits="userSpaceOnUse"><path d="M0 0 L10 4 L0 8 z" fill="#0055A4"/></marker></defs>
<rect x="0" y="0" width="1600" height="820" rx="0" fill="#FFFFFF" stroke="#FFFFFF" stroke-width="0"/><text x="80" y="80" font-size="40" font-weight="700" fill="#0055A4" text-anchor="start">判断这一步到底看什么</text><text x="80" y="122" font-size="18" font-weight="400" fill="#0B1F3A" text-anchor="start">Avocado Press。左边一块是焦点；右边三张小卡是支持，不要做成均等四宫格。</text><rect x="90" y="186" width="880" height="520" rx="0" fill="#0055A4" stroke="#0055A4" stroke-width="0"/><rect x="80" y="166" width="880" height="520" rx="0" fill="#0055A4" stroke="#0055A4" stroke-width="0"/><text x="120" y="230" font-size="40" font-weight="700" fill="#FFFFFF" text-anchor="start" data-bg="#0055A4">判断</text><text x="120" y="286" font-size="22" font-weight="700" fill="#DCF4A2" text-anchor="start" data-bg="#0055A4">谁决策，不是谁执行。</text><text x="120" y="360" font-size="18" font-weight="400" fill="#FFFFFF" text-anchor="start" data-bg="#0055A4">上下文已经在，不必再找工具。</text><text x="120" y="404" font-size="18" font-weight="400" fill="#FFFFFF" text-anchor="start" data-bg="#0055A4">能直接回答 → 写最终答案，结束。</text><text x="120" y="448" font-size="18" font-weight="400" fill="#FFFFFF" text-anchor="start" data-bg="#0055A4">缺事实或缺动作 → 才进工具回路。</text><text x="120" y="492" font-size="18" font-weight="400" fill="#FFFFFF" text-anchor="start" data-bg="#0055A4">工具结果必须回来，再判断一次。</text><rect x="1000" y="166" width="520" height="160" rx="0" fill="#DCF4A2" stroke="#0055A4" stroke-width="4"/><text x="1028" y="222" font-size="22" font-weight="700" fill="#0B1F3A" text-anchor="start">直接回答</text><text x="1028" y="262" font-size="16" font-weight="400" fill="#0B1F3A" text-anchor="start">短支。到最终答案就停。</text><rect x="1000" y="346" width="520" height="160" rx="0" fill="#FFFFFF" stroke="#0055A4" stroke-width="4"/><text x="1028" y="402" font-size="22" font-weight="700" fill="#0055A4" text-anchor="start">需要工具</text><text x="1028" y="442" font-size="16" font-weight="400" fill="#0055A4" text-anchor="start">整段放大。执行是下一张卡。</text><rect x="1000" y="526" width="520" height="160" rx="0" fill="#FFFFFF" stroke="#0055A4" stroke-width="4"/><text x="1028" y="582" font-size="22" font-weight="700" fill="#0055A4" text-anchor="start">虚线回填</text><text x="1028" y="622" font-size="16" font-weight="400" fill="#0055A4" text-anchor="start">结果进判断，不是新的正向边。</text><rect x="80" y="720" width="1440" height="56" rx="0" fill="#0055A4" stroke="#0055A4" stroke-width="0"/><text x="800" y="756" font-size="18" font-weight="700" fill="#FFFFFF" text-anchor="middle" data-bg="#0055A4">一张图只放大判断。执行工具另走工具回路，不要和判断抢尺寸。</text>
</svg>
